<?xml version="1.0" encoding="UTF-8"?>
<svg id="Layer_1" data-name="Layer 1" xmlns="http://www.w3.org/2000/svg" xmlns:xlink="http://www.w3.org/1999/xlink" viewBox="0 0 1601.84 1604.5">
  <defs>
    <style>
      .cls-1 {
        fill: none;
      }

      .cls-2 {
        fill: url(#radial-gradient);
      }

      .cls-3 {
        clip-path: url(#clippath);
      }
    </style>
    <clipPath id="clippath">
      <path class="cls-1" d="M619.65,46.34c-54.6,34.78-99.21,120.4-125.39,176.11-62.38,132.78-58.63,278.55,16.37,405.71,102.46,182.04,334.8,276.21,534.86,193.08,38.42-17.2,141.37-75.63,171.04-145.44,29.67-69.81,4.88-71.04,0-71.56s-57.59,0-115.19,29.67c-67.91,34.98-152.91,44.16-227.08,27.73-15.33-3.39-30.95-6.73-44.99-13.76-10.48-5.24-14.19-7.27-21.13-15.14,45.33-15.69,90.66-31.37,135.99-47.06,68.89-23.84,138.96-45.69,206.92-72,41.32-15.99,130.19-30.6,137.62,34.13,11.96,104.3-76.11,188.62-152.66,244.84-114.34,83.97-263.99,118.21-403.07,88.42-219.05-46.91-364.46-267.88-341.6-487.53,15.34-147.42,105.16-268.75,228.32-347.21ZM604.52,383.76c2.86,2,5.44,4.46,8.57,6,5.96,2.94,9.49,3.83,15.16,4.98,68.68,13.83,141.67-7.37,202.74-38.66,44.59-22.85,85.89-49.71,132.6-68.79,74.09-30.27,154.44-54.56,234.73-38.18,26.47,5.4,52.28,14.5,76.17,27.14,4.76,2.52,25.24,10.83,26.98,16.76-9.14-31.16-23.51-61.21-45.26-85.58-34.4-38.55-83.67-56.82-134.45-59.22-67.91-3.2-123.5,20.99-182.19,52.84-35.67,19.36-71.35,38.72-107.02,58.08-69.41,37.67-138.82,75.34-208.23,113,0,0-19.78,11.64-19.78,11.64ZM719.71,504.76c46.45,16.48,102.61,18.2,150.93,9.63,48.8-8.66,91.39-35.97,136.95-53.86,52.93-20.79,105.94-40.91,162.39-49.88,116.35-18.49,144.28,75.5,144.28,75.5,16.29-26.76,6.98-74.46,6.98-74.46,0,0-15.13-98.9-181.51-81.45-166.38,17.45-420.03,174.53-420.03,174.53Z"/>
    </clipPath>
    <radialGradient id="radial-gradient" cx="800.93" cy="5913.6" fx="800.93" fy="5913.6" r="801.58" gradientTransform="translate(-.0151 -5111.3514)" gradientUnits="userSpaceOnUse">
      <stop offset="0" stop-color="#c7eafb"/>
      <stop offset=".25" stop-color="#07bce4"/>
      <stop offset=".48" stop-color="#0a82c5"/>
      <stop offset=".5" stop-color="#067fb9"/>
      <stop offset=".58" stop-color="#047792"/>
      <stop offset=".66" stop-color="#027375"/>
      <stop offset=".72" stop-color="#006f60"/>
      <stop offset=".77" stop-color="#046c53"/>
      <stop offset=".8" stop-color="#016b4f"/>
      <stop offset="1" stop-color="#005d3a"/>
    </radialGradient>
  </defs>
  <g class="cls-3">
    <path class="cls-2" d="M0,800.9c0,444.59,359.01,803.6,800.68,803.6s801.16-359.01,801.16-803.6S1242.83,0,800.68,0C359-.01,0,358.99,0,800.9Z"/>
  </g>
</svg>